<svg width="73" height="30" viewBox="0 0 73 30" fill="none" xmlns="http://www.w3.org/2000/svg">
<path d="M0.21875 24V5.09091H5.35227V19.8636H12.9972V24H0.21875ZM48.2285 29.6136C46.8066 29.6136 45.5879 29.4105 44.5723 29.0043C43.5628 28.6042 42.778 28.0502 42.2179 27.3423C41.6639 26.6406 41.353 25.8343 41.2853 24.9233H46.1973C46.2465 25.2249 46.3696 25.468 46.5666 25.6527C46.7636 25.8374 47.0159 25.9697 47.3237 26.0497C47.6376 26.1359 47.9885 26.179 48.3762 26.179C49.0349 26.179 49.5796 26.0189 50.0105 25.6989C50.4475 25.3788 50.666 24.8002 50.666 23.9631V21.5625H50.5183C50.3336 22.0426 50.0505 22.4519 49.6689 22.7905C49.2872 23.1229 48.8287 23.3783 48.2931 23.5568C47.7576 23.7292 47.1698 23.8153 46.5297 23.8153C45.5202 23.8153 44.5907 23.5814 43.7413 23.1136C42.898 22.6458 42.2209 21.9041 41.71 20.8885C41.2053 19.8729 40.9529 18.5464 40.9529 16.9091C40.9529 15.1979 41.2176 13.8068 41.747 12.7358C42.2825 11.6648 42.9719 10.88 43.8152 10.3814C44.6646 9.88281 45.5571 9.63352 46.4927 9.63352C47.1944 9.63352 47.81 9.75663 48.3393 10.0028C48.8687 10.2429 49.3118 10.5661 49.6689 10.9723C50.0259 11.3724 50.2967 11.8125 50.4814 12.2926H50.5922V9.81818H55.6887V23.9631C55.6887 25.1634 55.3779 26.1821 54.7562 27.0192C54.1407 27.8625 53.2728 28.5057 52.1525 28.9489C51.0323 29.392 49.7243 29.6136 48.2285 29.6136ZM48.4132 20.196C48.881 20.196 49.2811 20.0668 49.6135 19.8082C49.952 19.5436 50.2105 19.1681 50.389 18.6818C50.5737 18.1894 50.666 17.5985 50.666 16.9091C50.666 16.2074 50.5737 15.6072 50.389 15.1087C50.2105 14.6039 49.952 14.2192 49.6135 13.9545C49.2811 13.6837 48.881 13.5483 48.4132 13.5483C47.9454 13.5483 47.5453 13.6837 47.2129 13.9545C46.8867 14.2192 46.6343 14.6039 46.4558 15.1087C46.2834 15.6072 46.1973 16.2074 46.1973 16.9091C46.1973 17.6108 46.2834 18.2079 46.4558 18.7003C46.6343 19.1866 46.8867 19.5589 47.2129 19.8175C47.5453 20.0698 47.9454 20.196 48.4132 20.196ZM65.1133 24.2585C63.5745 24.2585 62.2572 23.9538 61.1616 23.3445C60.0659 22.7289 59.2257 21.8733 58.641 20.7777C58.0562 19.6759 57.7638 18.3987 57.7638 16.946C57.7638 15.4934 58.0562 14.2192 58.641 13.1236C59.2257 12.0218 60.0659 11.1662 61.1616 10.5568C62.2572 9.94129 63.5745 9.63352 65.1133 9.63352C66.6521 9.63352 67.9693 9.94129 69.065 10.5568C70.1606 11.1662 71.0008 12.0218 71.5856 13.1236C72.1703 14.2192 72.4627 15.4934 72.4627 16.946C72.4627 18.3987 72.1703 19.6759 71.5856 20.7777C71.0008 21.8733 70.1606 22.7289 69.065 23.3445C67.9693 23.9538 66.6521 24.2585 65.1133 24.2585ZM65.1502 20.4915C65.5811 20.4915 65.9535 20.3468 66.2674 20.0575C66.5813 19.7682 66.8245 19.3558 66.9968 18.8203C67.1692 18.2848 67.2553 17.6477 67.2553 16.9091C67.2553 16.1643 67.1692 15.5272 66.9968 14.9979C66.8245 14.4624 66.5813 14.05 66.2674 13.7607C65.9535 13.4714 65.5811 13.3267 65.1502 13.3267C64.6947 13.3267 64.3039 13.4714 63.9776 13.7607C63.6514 14.05 63.4021 14.4624 63.2298 14.9979C63.0574 15.5272 62.9712 16.1643 62.9712 16.9091C62.9712 17.6477 63.0574 18.2848 63.2298 18.8203C63.4021 19.3558 63.6514 19.7682 63.9776 20.0575C64.3039 20.3468 64.6947 20.4915 65.1502 20.4915Z" fill="black"/>
<path d="M26.9785 24.4176C24.4927 24.4176 22.3649 23.9254 20.595 22.9411C18.8251 21.9467 17.4679 20.5646 16.5233 18.7947C15.5787 17.0149 15.1064 14.9517 15.1064 12.6051C15.1064 10.2585 15.5787 8.20028 16.5233 6.4304C17.4679 4.65057 18.8251 3.26846 20.595 2.28409C22.3649 1.28977 24.4927 0.792614 26.9785 0.792614C29.4643 0.792614 31.5922 1.28977 33.362 2.28409C35.1319 3.26846 36.4892 4.65057 37.4338 6.4304C38.3784 8.20028 38.8507 10.2585 38.8507 12.6051C38.8507 14.9517 38.3784 17.0149 37.4338 18.7947C36.4892 20.5646 35.1319 21.9467 33.362 22.9411C31.5922 23.9254 29.4643 24.4176 26.9785 24.4176ZM27.0382 18.3324C27.7342 18.3324 28.3358 18.0987 28.8429 17.6314C29.35 17.1641 29.7427 16.4979 30.0211 15.6328C30.2995 14.7678 30.4387 13.7386 30.4387 12.5455C30.4387 11.3423 30.2995 10.3132 30.0211 9.4581C29.7427 8.59304 29.35 7.92685 28.8429 7.45952C28.3358 6.99219 27.7342 6.75852 27.0382 6.75852C26.3024 6.75852 25.671 6.99219 25.144 7.45952C24.617 7.92685 24.2143 8.59304 23.9359 9.4581C23.6575 10.3132 23.5183 11.3423 23.5183 12.5455C23.5183 13.7386 23.6575 14.7678 23.9359 15.6328C24.2143 16.4979 24.617 17.1641 25.144 17.6314C25.671 18.0987 26.3024 18.3324 27.0382 18.3324Z" fill="#2F80ED"/>
</svg>
